# MagicaVoxel @ Ephtracy

# group
o 

# material
mtllib smallBoat.mtl
usemtl palette

# normals
vn -1 0 0
vn 1 0 0
vn 0 0 1
vn 0 0 -1
vn 0 -1 0
vn 0 1 0

# texcoords
vt 0.865234 0.5
vt 0.962891 0.5

# verts
v 0.2 0 -0.1
v 0.2 0 -0.8
v 0.2 0.2 -0.1
v 0.2 0.2 -0.8
v 0.3 0 0
v 0.3 0 -0.1
v 0.3 0.2 0
v 0.3 0.2 -0.1
v 0.5 0.1 -0.3
v 0.5 0.1 -0.4
v 0.5 0.3 -0.4
v 0.5 0.3 -0.8
v 0.5 0.4 -0.7
v 0.5 0.4 -0.8
v 0.5 0.5 -0.6
v 0.5 0.5 -0.7
v 0.5 0.7 -0.5
v 0.5 0.7 -0.6
v 0.5 0.8 -0.4
v 0.5 0.8 -0.5
v 0.5 0.9 -0.3
v 0.5 0.9 -0.4
v 0.6 0.1 -0.1
v 0.6 0.1 -0.3
v 0.6 0.1 -0.4
v 0.6 0.1 -0.7
v 0.6 0.2 -0.1
v 0.6 0.2 -0.3
v 0.6 0.2 -0.4
v 0.6 0.2 -0.7
v 0.3 0.1 -0.1
v 0.3 0.1 -0.7
v 0.3 0.2 -0.1
v 0.3 0.2 -0.7
v 0.6 0 0
v 0.6 0 -0.1
v 0.6 0.2 0
v 0.6 0.2 -0.1
v 0.6 0.2 -0.3
v 0.6 0.2 -0.4
v 0.6 0.3 -0.4
v 0.6 0.3 -0.8
v 0.6 0.4 -0.7
v 0.6 0.4 -0.8
v 0.6 0.5 -0.6
v 0.6 0.5 -0.7
v 0.6 0.7 -0.5
v 0.6 0.7 -0.6
v 0.6 0.8 -0.4
v 0.6 0.8 -0.5
v 0.6 0.9 -0.3
v 0.6 0.9 -0.4
v 0.7 0 -0.1
v 0.7 0 -0.8
v 0.7 0.2 -0.1
v 0.7 0.2 -0.8
v 0.3 0 0
v 0.3 0.2 0
v 0.6 0 0
v 0.6 0.2 0
v 0.2 0 -0.1
v 0.2 0.2 -0.1
v 0.3 0 -0.1
v 0.3 0.2 -0.1
v 0.6 0 -0.1
v 0.6 0.2 -0.1
v 0.7 0 -0.1
v 0.7 0.2 -0.1
v 0.5 0.1 -0.3
v 0.5 0.9 -0.3
v 0.6 0.1 -0.3
v 0.6 0.2 -0.3
v 0.6 0.9 -0.3
v 0.3 0.1 -0.7
v 0.3 0.2 -0.7
v 0.6 0.1 -0.7
v 0.6 0.2 -0.7
v 0.3 0.1 -0.1
v 0.3 0.2 -0.1
v 0.6 0.1 -0.1
v 0.6 0.2 -0.1
v 0.5 0.1 -0.4
v 0.5 0.3 -0.4
v 0.5 0.8 -0.4
v 0.5 0.9 -0.4
v 0.6 0.1 -0.4
v 0.6 0.2 -0.4
v 0.6 0.3 -0.4
v 0.6 0.8 -0.4
v 0.6 0.9 -0.4
v 0.5 0.7 -0.5
v 0.5 0.8 -0.5
v 0.6 0.7 -0.5
v 0.6 0.8 -0.5
v 0.5 0.5 -0.6
v 0.5 0.7 -0.6
v 0.6 0.5 -0.6
v 0.6 0.7 -0.6
v 0.5 0.4 -0.7
v 0.5 0.5 -0.7
v 0.6 0.4 -0.7
v 0.6 0.5 -0.7
v 0.2 0 -0.8
v 0.2 0.2 -0.8
v 0.5 0.3 -0.8
v 0.5 0.4 -0.8
v 0.6 0.3 -0.8
v 0.6 0.4 -0.8
v 0.7 0 -0.8
v 0.7 0.2 -0.8
v 0.3 0 0
v 0.6 0 0
v 0.2 0 -0.1
v 0.3 0 -0.1
v 0.6 0 -0.1
v 0.7 0 -0.1
v 0.2 0 -0.8
v 0.7 0 -0.8
v 0.5 0.3 -0.4
v 0.6 0.3 -0.4
v 0.5 0.3 -0.8
v 0.6 0.3 -0.8
v 0.3 0.1 -0.1
v 0.6 0.1 -0.1
v 0.5 0.1 -0.3
v 0.6 0.1 -0.3
v 0.5 0.1 -0.4
v 0.6 0.1 -0.4
v 0.3 0.1 -0.7
v 0.6 0.1 -0.7
v 0.3 0.2 0
v 0.6 0.2 0
v 0.2 0.2 -0.1
v 0.3 0.2 -0.1
v 0.6 0.2 -0.1
v 0.7 0.2 -0.1
v 0.6 0.2 -0.3
v 0.6 0.2 -0.4
v 0.3 0.2 -0.7
v 0.6 0.2 -0.7
v 0.2 0.2 -0.8
v 0.7 0.2 -0.8
v 0.5 0.4 -0.7
v 0.6 0.4 -0.7
v 0.5 0.4 -0.8
v 0.6 0.4 -0.8
v 0.5 0.5 -0.6
v 0.6 0.5 -0.6
v 0.5 0.5 -0.7
v 0.6 0.5 -0.7
v 0.5 0.7 -0.5
v 0.6 0.7 -0.5
v 0.5 0.7 -0.6
v 0.6 0.7 -0.6
v 0.5 0.8 -0.4
v 0.6 0.8 -0.4
v 0.5 0.8 -0.5
v 0.6 0.8 -0.5
v 0.5 0.9 -0.3
v 0.6 0.9 -0.3
v 0.5 0.9 -0.4
v 0.6 0.9 -0.4

# faces
f 3/1/1 2/1/1 1/1/1
f 4/1/1 2/1/1 3/1/1
f 7/1/1 6/1/1 5/1/1
f 8/1/1 6/1/1 7/1/1
f 11/1/1 10/1/1 9/1/1
f 13/2/1 12/2/1 11/2/1
f 14/2/1 12/2/1 13/2/1
f 15/2/1 13/2/1 11/2/1
f 16/2/1 13/2/1 15/2/1
f 17/2/1 15/2/1 11/2/1
f 18/2/1 15/2/1 17/2/1
f 19/1/1 11/1/1 9/1/1
f 19/2/1 17/2/1 11/2/1
f 20/2/1 17/2/1 19/2/1
f 21/1/1 19/1/1 9/1/1
f 22/1/1 19/1/1 21/1/1
f 27/1/1 24/1/1 23/1/1
f 28/1/1 24/1/1 27/1/1
f 29/1/1 26/1/1 25/1/1
f 30/1/1 26/1/1 29/1/1
f 31/1/2 32/1/2 33/1/2
f 33/1/2 32/1/2 34/1/2
f 35/1/2 36/1/2 37/1/2
f 37/1/2 36/1/2 38/1/2
f 39/1/2 40/1/2 41/1/2
f 41/2/2 42/2/2 43/2/2
f 43/2/2 42/2/2 44/2/2
f 41/2/2 43/2/2 45/2/2
f 45/2/2 43/2/2 46/2/2
f 41/2/2 45/2/2 47/2/2
f 47/2/2 45/2/2 48/2/2
f 39/1/2 41/1/2 49/1/2
f 41/2/2 47/2/2 49/2/2
f 49/2/2 47/2/2 50/2/2
f 39/1/2 49/1/2 51/1/2
f 51/1/2 49/1/2 52/1/2
f 53/1/2 54/1/2 55/1/2
f 55/1/2 54/1/2 56/1/2
f 59/1/3 58/1/3 57/1/3
f 60/1/3 58/1/3 59/1/3
f 63/1/3 62/1/3 61/1/3
f 64/1/3 62/1/3 63/1/3
f 67/1/3 66/1/3 65/1/3
f 68/1/3 66/1/3 67/1/3
f 71/1/3 70/1/3 69/1/3
f 72/1/3 70/1/3 71/1/3
f 73/1/3 70/1/3 72/1/3
f 76/1/3 75/1/3 74/1/3
f 77/1/3 75/1/3 76/1/3
f 78/1/4 79/1/4 80/1/4
f 80/1/4 79/1/4 81/1/4
f 82/1/4 83/1/4 86/1/4
f 86/1/4 83/1/4 87/1/4
f 87/1/4 83/1/4 88/1/4
f 84/1/4 85/1/4 89/1/4
f 89/1/4 85/1/4 90/1/4
f 91/2/4 92/2/4 93/2/4
f 93/2/4 92/2/4 94/2/4
f 95/2/4 96/2/4 97/2/4
f 97/2/4 96/2/4 98/2/4
f 99/2/4 100/2/4 101/2/4
f 101/2/4 100/2/4 102/2/4
f 105/2/4 106/2/4 107/2/4
f 107/2/4 106/2/4 108/2/4
f 103/1/4 104/1/4 109/1/4
f 109/1/4 104/1/4 110/1/4
f 114/1/5 112/1/5 111/1/5
f 115/1/5 112/1/5 114/1/5
f 117/1/5 114/1/5 113/1/5
f 117/1/5 116/1/5 115/1/5
f 117/1/5 115/1/5 114/1/5
f 118/1/5 116/1/5 117/1/5
f 121/2/5 120/2/5 119/2/5
f 122/2/5 120/2/5 121/2/5
f 123/1/6 124/1/6 125/1/6
f 125/1/6 124/1/6 126/1/6
f 123/1/6 125/1/6 127/1/6
f 123/1/6 127/1/6 129/1/6
f 127/1/6 128/1/6 129/1/6
f 129/1/6 128/1/6 130/1/6
f 131/1/6 132/1/6 134/1/6
f 134/1/6 132/1/6 135/1/6
f 135/1/6 136/1/6 137/1/6
f 137/1/6 136/1/6 138/1/6
f 133/1/6 134/1/6 139/1/6
f 138/1/6 136/1/6 140/1/6
f 133/1/6 139/1/6 141/1/6
f 139/1/6 140/1/6 141/1/6
f 140/1/6 136/1/6 142/1/6
f 141/1/6 140/1/6 142/1/6
f 143/2/6 144/2/6 145/2/6
f 145/2/6 144/2/6 146/2/6
f 147/2/6 148/2/6 149/2/6
f 149/2/6 148/2/6 150/2/6
f 151/2/6 152/2/6 153/2/6
f 153/2/6 152/2/6 154/2/6
f 155/2/6 156/2/6 157/2/6
f 157/2/6 156/2/6 158/2/6
f 159/1/6 160/1/6 161/1/6
f 161/1/6 160/1/6 162/1/6
